<?xml version="1.0" encoding="utf-8"?>
<!-- Generator: Adobe Illustrator 24.0.1, SVG Export Plug-In . SVG Version: 6.00 Build 0)  -->
<svg version="1.1" id="Camada_1" xmlns="http://www.w3.org/2000/svg" xmlns:xlink="http://www.w3.org/1999/xlink" x="0px" y="0px"
	 viewBox="0 0 165.2 177.4" style="enable-background:new 0 0 165.2 177.4;" xml:space="preserve">
<style type="text/css">
	.st0{fill:#F1860B;}
	.st1{fill:url(#SVGID_1_);}
	.st2{fill:#C6C6C6;}
</style>
<path class="st0" d="M39.6,17.5c0-8.3-7.1-15.1-15.9-15.1c-7.6,0-13.9,5-15.5,11.7l0,0c0,0-4.7,15.6,9.9,24c3.3,1.9,7.7,2.8,7.7,2.8
	v-8.4C33.5,31.5,39.6,25.2,39.6,17.5z"/>
<linearGradient id="SVGID_1_" gradientUnits="userSpaceOnUse" x1="7.5" y1="85.1635" x2="162.2002" y2="85.1635" gradientTransform="matrix(1 0 0 -1 0 176.8693)">
	<stop  offset="0.1059" style="stop-color:#29235C"/>
	<stop  offset="0.2451" style="stop-color:#2A2963"/>
	<stop  offset="0.5012" style="stop-color:#2C3A76"/>
	<stop  offset="0.8433" style="stop-color:#265DA0"/>
	<stop  offset="1" style="stop-color:#1D71B8"/>
</linearGradient>
<path class="st1" d="M99.1,13c-10.4-1.1-35.2-0.6-47.2-0.2c-3.8,0.1-6.7,3.2-6.6,7.1l0.6,32H14.4c-3.8,0-6.9,3.2-6.9,7v105
	c0,4,3.2,7.2,7.2,7.2c0,0,72.6-0.3,82.5-0.4c0.7,0,1.4-0.1,2.1-0.2c22.1-4.9,63-22.3,62.9-78.7C161.9,36.1,120.4,15.2,99.1,13z
	 M65.8,72.7c0,0,2.2-0.1,5.5-0.1h0.5c0.3,0,0.7,0,1,0c3.4-0.1,7.7-0.1,11.8,0c10.6,0.2,20,9.1,20.2,19.8c0.1,9.8-7,15.7-11,18.2
	c-1.6,1-3.4,1.5-5.2,1.5H65.8V72.7z M140.3,112c-9.6,34.4-52.1,38.6-82.5,38.6c-18,0-31.7,0-31.7,0V72.5h20.6L46,124.1
	c0,3.6,2.8,6.6,6.4,6.7c12.8,0.4,41,0.5,52.3-4.5c14.9-6.6,20.3-21.6,19.3-36.7C121.9,58.8,95.9,52.7,79.4,52c-0.4,0-0.7,0-1.1,0
	c-7.3-0.2-12.5-0.2-12.5-0.2V32.9c0,0,47.2-5.3,64.8,19.1C139.7,64.6,147.7,85.5,140.3,112z"/>
<path class="st2" d="M79.4,52.1l-6.6,20.5c-0.4,0-0.7,0-1,0h-0.5c-3.3,0-5.5,0.1-5.5,0.1V51.8c0,0,5.2,0,12.5,0.2
	C78.7,52,79,52.1,79.4,52.1z"/>
</svg>
