<?xml version="1.0" encoding="utf-8"?>
<!-- Generator: Adobe Illustrator 25.2.0, SVG Export Plug-In . SVG Version: 6.00 Build 0)  -->
<svg version="1.1" id="Camada_1" xmlns="http://www.w3.org/2000/svg" xmlns:xlink="http://www.w3.org/1999/xlink" x="0px" y="0px"
	 viewBox="0 0 527.2 190.4" style="enable-background:new 0 0 527.2 190.4;" xml:space="preserve">
<style type="text/css">
	.st0{fill:#BF7B53;}
	.st1{fill:#F1860B;}
	.st2{fill:#FFFFFF;}
	.st3{fill:#353535;}
	.st4{enable-background:new    ;}
</style>
<g>
	<g>
		<g>
			<polygon class="st0" points="195,137.7 83.6,137.7 78.6,128.6 79.5,128.8 83.8,136.8 195,136.8 			"/>
		</g>
		<g>
			<ellipse class="st0" cx="194.9" cy="137.2" rx="1" ry="1.7"/>
		</g>
	</g>
	<g>
		<g>
			<polygon class="st0" points="66,139.6 48.1,139.6 48.1,138.7 65.8,138.7 71.6,127.9 195,127.9 195,128.8 71.8,128.8 			"/>
		</g>
		<g>
			<ellipse class="st0" cx="194.9" cy="128.3" rx="1" ry="1.7"/>
		</g>
	</g>
	<g>
		<g>
			<rect x="168.8" y="119" class="st0" width="26.2" height="0.9"/>
		</g>
		<g>
			<path class="st0" d="M194.9,117.7c0.5,0,1,0.8,1,1.7c0,1-0.4,1.7-1,1.7c-0.5,0-1-0.8-1-1.7C194,118.5,194.4,117.7,194.9,117.7z"
				/>
		</g>
	</g>
	<g>
		<g>
			<polygon class="st0" points="159.2,118.5 77.5,118.5 74.7,113.3 75.1,112.6 77.7,117.6 159,117.6 163,110.1 195,110.1 195,111 
				163.3,111 			"/>
		</g>
		<g>
			<ellipse class="st0" cx="194.9" cy="110.5" rx="1" ry="1.7"/>
		</g>
	</g>
	<g>
		<g>
			<polygon class="st0" points="66.7,112.2 51.1,112.2 51.1,111.3 66.5,111.3 70.2,104.6 93.8,104.6 97.3,110.9 154.2,110.9 
				159.5,101.2 195,101.2 195,102.1 159.8,102.1 154.5,111.9 97.1,111.9 93.6,105.5 70.4,105.5 			"/>
		</g>
		<g>
			<path class="st0" d="M194.9,99.9c0.5,0,1,0.8,1,1.7c0,1-0.4,1.7-1,1.7c-0.5,0-1-0.8-1-1.7C194,100.7,194.4,99.9,194.9,99.9z"/>
		</g>
	</g>
	<g>
		<g>
			<polygon class="st0" points="40.2,103.8 39.8,103.1 45.5,92.7 71.5,92.7 76.8,83 89.2,83 96.7,96.8 137.2,96.8 139.6,92.3 
				195,92.3 195,93.2 139.9,93.2 137.4,97.8 96.5,97.8 89,83.9 77,83.9 71.7,93.6 45.7,93.6 			"/>
		</g>
		<g>
			<ellipse class="st0" cx="194.9" cy="92.7" rx="1" ry="1.7"/>
		</g>
	</g>
	<g>
		<g>
			<polygon class="st0" points="195,84.3 103.8,84.3 94.6,67.4 95.2,67.4 104,83.4 195,83.4 			"/>
		</g>
		<g>
			<ellipse class="st0" cx="194.9" cy="83.8" rx="1" ry="1.7"/>
		</g>
	</g>
	<g>
		<g>
			<polygon class="st0" points="74.9,78.1 41.4,78.1 41.4,77.1 74.7,77.1 80.4,66.7 163.8,66.7 168,74.5 195,74.5 195,75.4 
				167.8,75.4 163.5,67.6 80.6,67.6 			"/>
		</g>
		<g>
			<ellipse class="st0" cx="194.9" cy="74.9" rx="1" ry="1.7"/>
		</g>
	</g>
	<g>
		<polygon class="st0" points="195,66.5 167.8,66.5 163.4,58.4 78.2,58.4 75,64.2 51.7,64.2 51.7,63.3 74.8,63.3 78,57.5 
			163.6,57.5 168,65.6 195,65.6 		"/>
	</g>
	<g>
		<path class="st0" d="M50.7,62c-1,0-1.8,0.8-1.8,1.8c0,1,0.8,1.8,1.8,1.8s1.8-0.8,1.8-1.8C52.5,62.8,51.7,62,50.7,62z"/>
	</g>
	<g>
		<path class="st0" d="M112.8,74.1c-1,0-1.8,0.8-1.8,1.8s0.8,1.8,1.8,1.8s1.8-0.8,1.8-1.8C114.5,74.9,113.7,74.1,112.8,74.1z"/>
	</g>
	<g>
		<path class="st0" d="M101.7,87.1c-1,0-1.8,0.8-1.8,1.8s0.8,1.8,1.8,1.8s1.8-0.8,1.8-1.8C103.4,87.9,102.6,87.1,101.7,87.1z"/>
	</g>
	<g>
		<path class="st0" d="M41,75.9c-1,0-1.8,0.8-1.8,1.8s0.8,1.8,1.8,1.8s1.8-0.8,1.8-1.8C42.7,76.7,41.9,75.9,41,75.9z"/>
	</g>
	<g>
		<path class="st0" d="M51.1,86c-1,0-1.8,0.8-1.8,1.8s0.8,1.8,1.8,1.8s1.8-0.8,1.8-1.8C52.9,86.8,52.1,86,51.1,86z"/>
	</g>
	<g>
		<path class="st0" d="M56.2,96.8c-1,0-1.8,0.8-1.8,1.8s0.8,1.8,1.8,1.8s1.8-0.8,1.8-1.8C58,97.6,57.2,96.8,56.2,96.8z"/>
	</g>
	<g>
		<path class="st0" d="M50.2,109.9c-1,0-1.8,0.8-1.8,1.8s0.8,1.8,1.8,1.8s1.8-0.8,1.8-1.8C51.9,110.7,51.1,109.9,50.2,109.9z"/>
	</g>
	<g>
		<path class="st0" d="M74.5,110.4c-1,0-1.8,0.8-1.8,1.8s0.8,1.8,1.8,1.8s1.8-0.8,1.8-1.8C76.3,111.2,75.5,110.4,74.5,110.4z"/>
	</g>
	<g>
		<path class="st0" d="M167.9,117.7c-1,0-1.8,0.8-1.8,1.8s0.8,1.8,1.8,1.8s1.8-0.8,1.8-1.8C169.6,118.5,168.9,117.7,167.9,117.7z"/>
	</g>
	<g>
		<path class="st0" d="M48.1,137c-1,0-1.8,0.8-1.8,1.8s0.8,1.8,1.8,1.8s1.8-0.8,1.8-1.8C49.9,137.8,49.1,137,48.1,137z"/>
	</g>
	<g>
		<path class="st0" d="M39.2,102c-1,0-1.8,0.8-1.8,1.8s0.8,1.8,1.8,1.8s1.8-0.8,1.8-1.8S40.2,102,39.2,102z"/>
	</g>
	<g>
		<g>
			<polygon class="st0" points="162.2,84.1 157.9,76.2 112.8,76.2 112.8,75.3 158.1,75.3 162.5,83.4 			"/>
		</g>
	</g>
	<g>
		<g>
			<polygon class="st0" points="101.3,88.8 94.4,76.2 88.3,76.2 84.6,83 83.9,83.1 88.1,75.3 94.6,75.3 101.7,88.2 			"/>
		</g>
	</g>
	<g>
		<g>
			<rect x="51.6" y="87.4" class="st0" width="23" height="0.9"/>
		</g>
	</g>
	<g>
		<g>
			<polygon class="st0" points="131.6,110.9 126.8,102.1 91.2,102.1 87.1,94.6 77.2,94.6 74.7,99.1 56.2,99.1 56.2,98.2 74.5,98.2 
				77,93.7 87.4,93.7 91.4,101.2 127,101.2 132.4,111 			"/>
		</g>
	</g>
</g>
<g>
	<g>
		<g>
			<polygon class="st0" points="331.6,136.9 442.9,136.9 447.9,127.7 447.1,128 442.7,135.9 331.6,135.9 			"/>
		</g>
		<g>
			<ellipse class="st0" cx="331.6" cy="136.4" rx="1" ry="1.7"/>
		</g>
	</g>
	<g>
		<g>
			<polygon class="st0" points="460.6,138.7 478.4,138.7 478.4,137.8 460.8,137.8 454.9,127 331.6,127 331.6,128 454.7,128 			"/>
		</g>
		<g>
			<ellipse class="st0" cx="331.6" cy="127.5" rx="1" ry="1.7"/>
		</g>
	</g>
	<g>
		<g>
			<rect x="331.6" y="118.1" class="st0" width="26.2" height="0.9"/>
		</g>
		<g>
			<path class="st0" d="M331.6,116.9c-0.5,0-1,0.8-1,1.7c0,1,0.4,1.7,1,1.7s1-0.8,1-1.7C332.6,117.6,332.1,116.9,331.6,116.9z"/>
		</g>
	</g>
	<g>
		<g>
			<polygon class="st0" points="367.4,117.7 449,117.7 451.9,112.5 451.5,111.8 448.8,116.7 367.6,116.7 363.5,109.2 331.6,109.2 
				331.6,110.2 363.3,110.2 			"/>
		</g>
		<g>
			<ellipse class="st0" cx="331.6" cy="109.7" rx="1" ry="1.7"/>
		</g>
	</g>
	<g>
		<g>
			<polygon class="st0" points="459.8,111.4 475.5,111.4 475.5,110.4 460,110.4 456.4,103.8 432.7,103.8 429.3,110.1 372.3,110.1 
				367,100.3 331.6,100.3 331.6,101.3 366.8,101.3 372.1,111 429.5,111 432.9,104.7 456.2,104.7 			"/>
		</g>
		<g>
			<path class="st0" d="M331.6,99.1c-0.5,0-1,0.8-1,1.7c0,1,0.4,1.7,1,1.7s1-0.8,1-1.7C332.6,99.8,332.1,99.1,331.6,99.1z"/>
		</g>
	</g>
	<g>
		<g>
			<polygon class="st0" points="486.4,102.9 486.8,102.3 481.1,91.8 455,91.8 449.8,82.2 437.4,82.2 429.8,96 389.4,96 386.9,91.4 
				331.6,91.4 331.6,92.4 386.7,92.4 389.2,96.9 430,96.9 437.6,83.1 449.6,83.1 454.8,92.8 480.9,92.8 			"/>
		</g>
		<g>
			<ellipse class="st0" cx="331.6" cy="91.9" rx="1" ry="1.7"/>
		</g>
	</g>
	<g>
		<g>
			<polygon class="st0" points="331.6,83.5 422.8,83.5 432,66.6 431.3,66.5 422.6,82.5 331.6,82.5 			"/>
		</g>
		<g>
			<ellipse class="st0" cx="331.6" cy="83" rx="1" ry="1.7"/>
		</g>
	</g>
	<g>
		<g>
			<polygon class="st0" points="451.6,77.2 485.2,77.2 485.2,76.3 451.8,76.3 446.1,65.9 362.8,65.9 358.6,73.6 331.6,73.6 
				331.6,74.6 358.8,74.6 363,66.8 445.9,66.8 			"/>
		</g>
		<g>
			<ellipse class="st0" cx="331.6" cy="74.1" rx="1" ry="1.7"/>
		</g>
	</g>
	<g>
		<polygon class="st0" points="331.6,65.7 358.8,65.7 363.2,57.6 448.4,57.6 451.5,63.4 474.9,63.4 474.9,62.5 451.7,62.5 
			448.6,56.7 363,56.7 358.6,64.7 331.6,64.7 		"/>
	</g>
	<g>
		<path class="st0" d="M475.8,61.2c1,0,1.8,0.8,1.8,1.8s-0.8,1.8-1.8,1.8S474,64,474,63C474.1,62,474.9,61.2,475.8,61.2z"/>
	</g>
	<g>
		<path class="st0" d="M413.8,73.2c1,0,1.8,0.8,1.8,1.8s-0.8,1.8-1.8,1.8S412,76,412,75S412.8,73.2,413.8,73.2z"/>
	</g>
	<g>
		<path class="st0" d="M424.9,86.2c1,0,1.8,0.8,1.8,1.8s-0.8,1.8-1.8,1.8s-1.8-0.8-1.8-1.8S423.9,86.2,424.9,86.2z"/>
	</g>
	<g>
		<path class="st0" d="M485.6,75c1,0,1.8,0.8,1.8,1.8s-0.8,1.8-1.8,1.8s-1.8-0.8-1.8-1.8C483.8,75.8,484.6,75,485.6,75z"/>
	</g>
	<g>
		<path class="st0" d="M475.4,85.2c1,0,1.8,0.8,1.8,1.8s-0.8,1.8-1.8,1.8s-1.8-0.8-1.8-1.8C473.7,86,474.5,85.2,475.4,85.2z"/>
	</g>
	<g>
		<path class="st0" d="M470.3,95.9c1,0,1.8,0.8,1.8,1.8s-0.8,1.8-1.8,1.8s-1.8-0.8-1.8-1.8C468.6,96.7,469.3,95.9,470.3,95.9z"/>
	</g>
	<g>
		<path class="st0" d="M476.4,109.1c1,0,1.8,0.8,1.8,1.8s-0.8,1.8-1.8,1.8s-1.8-0.8-1.8-1.8S475.4,109.1,476.4,109.1z"/>
	</g>
	<g>
		<path class="st0" d="M452,109.6c1,0,1.8,0.8,1.8,1.8s-0.8,1.8-1.8,1.8s-1.8-0.8-1.8-1.8C450.3,110.4,451.1,109.6,452,109.6z"/>
	</g>
	<g>
		<path class="st0" d="M358.7,116.8c1,0,1.8,0.8,1.8,1.8s-0.8,1.8-1.8,1.8s-1.8-0.8-1.8-1.8C356.9,117.6,357.7,116.8,358.7,116.8z"
			/>
	</g>
	<g>
		<path class="st0" d="M478.4,136.2c1,0,1.8,0.8,1.8,1.8s-0.8,1.8-1.8,1.8s-1.8-0.8-1.8-1.8C476.7,137,477.5,136.2,478.4,136.2z"/>
	</g>
	<g>
		<path class="st0" d="M487.4,101.1c1,0,1.8,0.8,1.8,1.8s-0.8,1.8-1.8,1.8s-1.8-0.8-1.8-1.8S486.4,101.1,487.4,101.1z"/>
	</g>
	<g>
		<g>
			<polygon class="st0" points="364.4,83.3 368.7,75.4 413.8,75.4 413.8,74.4 368.5,74.4 364,82.6 			"/>
		</g>
	</g>
	<g>
		<g>
			<polygon class="st0" points="425.3,88 432.1,75.4 438.2,75.4 441.9,82.2 442.7,82.2 438.5,74.4 431.9,74.4 424.9,87.3 			"/>
		</g>
	</g>
	<g>
		<g>
			<rect x="452" y="86.5" class="st0" width="23" height="0.9"/>
		</g>
	</g>
	<g>
		<g>
			<polygon class="st0" points="395,110.1 399.8,101.3 435.3,101.3 439.4,93.8 449.4,93.8 451.8,98.3 470.3,98.3 470.3,97.3 
				452,97.3 449.6,92.8 439.2,92.8 435.1,100.3 399.5,100.3 394.2,110.2 			"/>
		</g>
	</g>
</g>
<path class="st1" d="M220.6,24c0-8.3-7.1-15.1-15.9-15.1c-7.6,0-13.9,5-15.5,11.7l0,0c0,0-4.7,15.6,9.9,24c3.3,1.9,7.7,2.8,7.7,2.8
	V39C214.5,38,220.6,31.7,220.6,24z"/>
<path class="st2" d="M280.1,19.5c-10.4-1.1-35.2-0.6-47.2-0.2c-3.8,0.1-6.7,3.2-6.6,7.1l0.6,32h-31.5c-3.8,0-6.9,3.2-6.9,7v105
	c0,4,3.2,7.2,7.2,7.2c0,0,72.6-0.3,82.5-0.4c0.7,0,1.4-0.1,2.1-0.2c22.1-4.9,63-22.3,62.9-78.7C342.9,42.6,301.4,21.7,280.1,19.5z
	 M246.8,79.2c0,0,2.2-0.1,5.5-0.1h0.5c0.3,0,0.7,0,1,0c3.4-0.1,7.7-0.1,11.8,0c10.6,0.2,20,9.1,20.2,19.8c0.1,9.8-7,15.7-11,18.2
	c-1.6,1-3.4,1.5-5.2,1.5h-22.8V79.2z M321.3,118.5c-9.6,34.4-52.1,38.6-82.5,38.6c-18,0-31.7,0-31.7,0V79h20.6l-0.7,51.6
	c0,3.6,2.8,6.6,6.4,6.7c12.8,0.4,41,0.5,52.3-4.5c14.9-6.6,20.3-21.6,19.3-36.7c-2.1-30.8-28.1-36.9-44.6-37.6c-0.4,0-0.7,0-1.1,0
	c-7.3-0.2-12.5-0.2-12.5-0.2V39.4c0,0,47.2-5.3,64.8,19.1C320.7,71.1,328.7,92,321.3,118.5z"/>
<path class="st3" d="M260.4,58.6l-6.6,20.5c-0.4,0-0.7,0-1,0h-0.5c-3.3,0-5.5,0.1-5.5,0.1V58.3c0,0,5.2,0,12.5,0.2
	C259.7,58.5,260,58.6,260.4,58.6z"/>
<g class="st4">
	<path class="st2" d="M71.5,156.3c-0.2,0.1-0.4,0.2-0.7,0.3c-0.2,0.1-0.5,0.2-0.8,0.3c-0.3,0.1-0.6,0.1-0.9,0.2s-0.7,0.1-1.2,0.1
		c-0.5,0-0.9-0.1-1.3-0.2c-0.4-0.1-0.7-0.3-1-0.5s-0.6-0.5-0.8-0.8c-0.2-0.3-0.4-0.7-0.6-1c-0.1-0.4-0.3-0.8-0.3-1.2
		c-0.1-0.4-0.1-0.8-0.1-1.2c0-0.4,0-0.9,0.1-1.3c0.1-0.4,0.2-0.8,0.4-1.2c0.2-0.4,0.4-0.7,0.6-1c0.2-0.3,0.5-0.6,0.9-0.8
		s0.7-0.4,1.1-0.5c0.4-0.1,0.8-0.2,1.3-0.2c0.2,0,0.4,0,0.6,0c0.2,0,0.4,0,0.5,0.1c0.2,0,0.3,0.1,0.5,0.1s0.3,0.1,0.5,0.2
		c0.2,0.1,0.3,0.2,0.5,0.3s0.3,0.2,0.5,0.4l-0.9,1.2c-0.2-0.2-0.4-0.4-0.6-0.5c-0.2-0.1-0.4-0.2-0.5-0.3s-0.4-0.1-0.6-0.2
		c-0.2,0-0.4,0-0.6,0c-0.4,0-0.8,0.1-1.1,0.3c-0.3,0.2-0.6,0.4-0.8,0.7c-0.2,0.3-0.4,0.7-0.5,1.1c-0.1,0.4-0.2,0.9-0.2,1.4
		c0,0.5,0,1,0.1,1.5s0.2,0.9,0.5,1.2c0.2,0.4,0.5,0.6,0.8,0.9c0.3,0.2,0.7,0.3,1.2,0.3c0.1,0,0.3,0,0.4,0c0.1,0,0.3,0,0.4-0.1
		c0.1,0,0.3,0,0.4-0.1s0.3-0.1,0.4-0.1v-3.2h1.7V156.3z"/>
	<path class="st2" d="M74.7,150.3c0.1,0.4,0.1,0.9,0.2,1.3c0.1-0.2,0.2-0.4,0.3-0.5c0.1-0.2,0.3-0.3,0.5-0.5
		c0.2-0.1,0.4-0.2,0.6-0.3s0.4-0.1,0.6-0.1c0.2,0,0.4,0,0.5,0c0.1,0,0.2,0.1,0.3,0.1l-0.3,1.4c-0.1-0.1-0.3-0.1-0.4-0.1
		c-0.1,0-0.2,0-0.3,0c-0.4,0-0.7,0.1-1,0.3c-0.3,0.2-0.5,0.4-0.7,0.7l0,4.3h-1.6v-5.5c0-0.1,0-0.2,0-0.3s0-0.2,0-0.3s0-0.2,0-0.3
		c0-0.1,0-0.2,0-0.2H74.7z"/>
	<path class="st2" d="M80.2,150.3v4.5c0,0.2,0,0.3,0.1,0.5c0.1,0.1,0.1,0.2,0.2,0.3c0.1,0.1,0.2,0.1,0.3,0.2c0.1,0,0.2,0.1,0.4,0.1
		c0.3,0,0.6,0,0.9-0.1s0.6-0.2,0.9-0.4v-5.1h1.6v5.5c0,0.1,0,0.3,0,0.5s0.1,0.4,0.1,0.7h-1.5c0,0,0-0.1,0-0.1c0-0.1,0-0.1-0.1-0.2
		c0-0.1,0-0.2-0.1-0.2c0-0.1,0-0.1,0-0.2c-0.1,0.1-0.3,0.2-0.5,0.3c-0.2,0.1-0.4,0.2-0.5,0.3c-0.2,0.1-0.4,0.1-0.6,0.2
		c-0.2,0-0.4,0.1-0.6,0.1c-0.4,0-0.8-0.1-1.1-0.2c-0.3-0.1-0.5-0.3-0.7-0.5c-0.2-0.2-0.3-0.5-0.4-0.7c-0.1-0.3-0.1-0.6-0.1-0.9v-4.4
		H80.2z"/>
	<path class="st2" d="M88.1,150.3c0,0.1,0.1,0.1,0.1,0.3c0,0.1,0,0.2,0.1,0.3c0.1-0.1,0.2-0.2,0.3-0.3c0.1-0.1,0.2-0.2,0.4-0.2
		c0.1-0.1,0.3-0.1,0.4-0.2c0.2,0,0.4-0.1,0.6-0.1c0.5,0,1,0.1,1.3,0.3s0.6,0.4,0.9,0.7c0.2,0.3,0.4,0.7,0.5,1.1
		c0.1,0.4,0.1,0.8,0.1,1.2c0,0.5-0.1,0.9-0.2,1.3c-0.1,0.4-0.3,0.8-0.6,1.1c-0.3,0.3-0.6,0.6-0.9,0.8c-0.4,0.2-0.8,0.3-1.3,0.3
		c-0.5,0-1-0.2-1.4-0.5v3.1h-1.6v-8.1c0,0,0-0.1,0-0.2c0-0.1,0-0.2,0-0.3c0-0.1,0-0.3,0-0.4s0-0.3-0.1-0.3H88.1z M89.6,151.4
		c-0.2,0-0.4,0-0.6,0.1c-0.2,0.1-0.4,0.1-0.6,0.3v3.8c0.1,0.1,0.2,0.2,0.3,0.2c0.1,0,0.2,0.1,0.3,0.1s0.2,0,0.3,0s0.2,0,0.4,0
		c0.2,0,0.5-0.1,0.6-0.2s0.3-0.3,0.4-0.5c0.1-0.2,0.2-0.5,0.2-0.8c0.1-0.3,0.1-0.6,0.1-0.9c0-0.3,0-0.6-0.1-0.8s-0.1-0.5-0.3-0.7
		s-0.3-0.3-0.5-0.4C90,151.5,89.8,151.4,89.6,151.4z"/>
	<path class="st2" d="M97.5,157.1c-0.5,0-1-0.1-1.4-0.3c-0.4-0.2-0.8-0.4-1-0.7c-0.3-0.3-0.5-0.7-0.6-1.1s-0.2-0.9-0.2-1.5
		c0-0.5,0.1-0.9,0.2-1.3c0.1-0.4,0.3-0.8,0.6-1.1c0.3-0.3,0.6-0.5,1-0.7c0.4-0.2,0.9-0.3,1.5-0.3s1,0.1,1.4,0.3
		c0.4,0.2,0.7,0.4,1,0.7c0.3,0.3,0.5,0.7,0.6,1.1s0.2,0.9,0.2,1.4c0,0.5-0.1,0.9-0.2,1.3c-0.1,0.4-0.4,0.8-0.6,1.1
		c-0.3,0.3-0.6,0.6-1,0.7C98.5,157,98,157.1,97.5,157.1z M97.5,156c0.3,0,0.5-0.1,0.7-0.2c0.2-0.1,0.4-0.3,0.5-0.6
		c0.1-0.2,0.2-0.5,0.3-0.8c0.1-0.3,0.1-0.6,0.1-0.9c0-0.3,0-0.6-0.1-0.8c-0.1-0.3-0.1-0.5-0.3-0.7c-0.1-0.2-0.3-0.3-0.5-0.5
		s-0.4-0.2-0.7-0.2c-0.3,0-0.5,0.1-0.7,0.2c-0.2,0.1-0.4,0.3-0.5,0.5c-0.1,0.2-0.2,0.5-0.3,0.7c-0.1,0.3-0.1,0.6-0.1,0.9
		c0,0.3,0,0.5,0.1,0.8s0.2,0.5,0.3,0.8c0.1,0.2,0.3,0.4,0.5,0.6C96.9,155.9,97.2,156,97.5,156z"/>
	<path class="st2" d="M112,150.2c0.3,0,0.6,0,0.8,0.1s0.4,0.2,0.6,0.3v-3.2h1.6v7.3c0,0.2,0,0.4,0,0.5c0,0.2,0,0.4,0.1,0.6
		c0,0.2,0.1,0.4,0.1,0.6c0.1,0.2,0.1,0.4,0.2,0.6h-1.5c0,0-0.1-0.1-0.1-0.1c0-0.1-0.1-0.1-0.1-0.2c0-0.1-0.1-0.1-0.1-0.2
		s-0.1-0.1-0.1-0.2c-0.2,0.3-0.5,0.5-0.8,0.6s-0.6,0.2-1,0.2c-0.5,0-0.9-0.1-1.2-0.3c-0.4-0.2-0.7-0.4-0.9-0.7
		c-0.3-0.3-0.4-0.7-0.6-1.1c-0.1-0.4-0.2-0.9-0.2-1.4c0-0.4,0.1-0.9,0.2-1.3c0.1-0.4,0.4-0.8,0.6-1.1c0.3-0.3,0.6-0.6,1-0.8
		S111.5,150.2,112,150.2z M112,155.8c0.2,0,0.5,0,0.7-0.1c0.2-0.1,0.4-0.1,0.7-0.3v-3.8c-0.2-0.1-0.4-0.1-0.5-0.2
		c-0.2,0-0.4-0.1-0.6-0.1c-0.3,0-0.5,0.1-0.7,0.2s-0.4,0.3-0.5,0.5c-0.1,0.2-0.3,0.4-0.3,0.7c-0.1,0.3-0.1,0.5-0.1,0.8
		c0,0.3,0,0.6,0.1,0.9c0.1,0.3,0.2,0.5,0.3,0.7c0.1,0.2,0.3,0.4,0.5,0.5C111.5,155.8,111.7,155.8,112,155.8z"/>
	<path class="st2" d="M123,155.8c-0.3,0.3-0.5,0.5-0.7,0.6c-0.2,0.2-0.5,0.3-0.7,0.4s-0.5,0.1-0.7,0.2c-0.2,0-0.5,0-0.8,0
		c-0.6,0-1-0.1-1.4-0.3c-0.4-0.2-0.7-0.5-1-0.8c-0.3-0.3-0.4-0.7-0.6-1.1c-0.1-0.4-0.2-0.9-0.2-1.3c0-0.4,0.1-0.9,0.2-1.3
		c0.1-0.4,0.3-0.8,0.6-1.1c0.3-0.3,0.6-0.5,1-0.7c0.4-0.2,0.8-0.3,1.4-0.3c0.5,0,0.9,0.1,1.2,0.2c0.4,0.1,0.6,0.3,0.9,0.5
		c0.2,0.2,0.4,0.5,0.5,0.9c0.1,0.3,0.2,0.7,0.2,1.1c0,0.2,0,0.3,0,0.5c0,0.2,0,0.3-0.1,0.5h-4.1c0,0.2,0,0.4,0.1,0.6
		s0.2,0.4,0.3,0.6c0.1,0.2,0.3,0.4,0.5,0.5c0.2,0.1,0.4,0.2,0.7,0.2c0.2,0,0.4,0,0.6,0c0.2,0,0.3-0.1,0.5-0.2
		c0.1-0.1,0.3-0.2,0.4-0.3c0.1-0.1,0.3-0.3,0.4-0.5L123,155.8z M119.9,151.4c-0.3,0-0.5,0-0.6,0.1c-0.2,0.1-0.3,0.2-0.4,0.4
		c-0.1,0.1-0.2,0.3-0.2,0.5c0,0.2-0.1,0.4-0.1,0.6h2.5c0-0.2,0-0.3,0-0.5c0-0.2-0.1-0.4-0.2-0.5c-0.1-0.2-0.2-0.3-0.4-0.4
		S120.1,151.4,119.9,151.4z"/>
	<path class="st2" d="M132.8,153.2v3.7h-1.7v-9.6h2.7c0.6,0,1.1,0.1,1.6,0.2c0.4,0.1,0.8,0.3,1.1,0.6c0.3,0.3,0.5,0.5,0.7,0.9
		c0.1,0.3,0.2,0.7,0.2,1.1c0,0.2,0,0.3-0.1,0.6c0,0.2-0.1,0.4-0.2,0.7c-0.1,0.2-0.2,0.4-0.4,0.7c-0.2,0.2-0.4,0.4-0.7,0.6
		s-0.6,0.3-1,0.4c-0.4,0.1-0.8,0.2-1.4,0.2H132.8z M132.8,152l0.9,0c0.3,0,0.6,0,0.9-0.1c0.3-0.1,0.5-0.2,0.7-0.3
		c0.2-0.2,0.3-0.3,0.4-0.6c0.1-0.2,0.1-0.5,0.1-0.8c0-0.2,0-0.4-0.1-0.6c-0.1-0.2-0.2-0.4-0.3-0.5c-0.2-0.1-0.4-0.3-0.6-0.4
		c-0.3-0.1-0.6-0.1-1-0.1h-0.9V152z"/>
	<path class="st2" d="M144.7,155.8c-0.3,0.3-0.5,0.5-0.7,0.6c-0.2,0.2-0.5,0.3-0.7,0.4s-0.5,0.1-0.7,0.2c-0.2,0-0.5,0-0.8,0
		c-0.6,0-1-0.1-1.4-0.3c-0.4-0.2-0.7-0.5-1-0.8c-0.3-0.3-0.4-0.7-0.6-1.1c-0.1-0.4-0.2-0.9-0.2-1.3c0-0.4,0.1-0.9,0.2-1.3
		c0.1-0.4,0.3-0.8,0.6-1.1c0.3-0.3,0.6-0.5,1-0.7c0.4-0.2,0.8-0.3,1.4-0.3c0.5,0,0.9,0.1,1.2,0.2c0.4,0.1,0.6,0.3,0.9,0.5
		c0.2,0.2,0.4,0.5,0.5,0.9c0.1,0.3,0.2,0.7,0.2,1.1c0,0.2,0,0.3,0,0.5c0,0.2,0,0.3-0.1,0.5h-4.1c0,0.2,0,0.4,0.1,0.6
		s0.2,0.4,0.3,0.6c0.1,0.2,0.3,0.4,0.5,0.5c0.2,0.1,0.4,0.2,0.7,0.2c0.2,0,0.4,0,0.6,0c0.2,0,0.3-0.1,0.5-0.2
		c0.1-0.1,0.3-0.2,0.4-0.3c0.1-0.1,0.3-0.3,0.4-0.5L144.7,155.8z M141.6,151.4c-0.3,0-0.5,0-0.6,0.1c-0.2,0.1-0.3,0.2-0.4,0.4
		c-0.1,0.1-0.2,0.3-0.2,0.5c0,0.2-0.1,0.4-0.1,0.6h2.5c0-0.2,0-0.3,0-0.5c0-0.2-0.1-0.4-0.2-0.5c-0.1-0.2-0.2-0.3-0.4-0.4
		S141.9,151.4,141.6,151.4z"/>
	<path class="st2" d="M146.7,155c0.6,0.7,1.2,1,1.9,1c0.2,0,0.3,0,0.4,0c0.1,0,0.2-0.1,0.3-0.1c0.1-0.1,0.2-0.1,0.2-0.3
		c0.1-0.1,0.1-0.2,0.1-0.4c0-0.1,0-0.2-0.1-0.3c0-0.1-0.1-0.2-0.2-0.2c-0.1-0.1-0.2-0.1-0.2-0.2c-0.1,0-0.2-0.1-0.3-0.1
		c-0.2-0.1-0.3-0.1-0.5-0.2c-0.2-0.1-0.3-0.1-0.5-0.2c-0.1,0-0.2-0.1-0.3-0.1s-0.3-0.1-0.4-0.2c-0.1-0.1-0.3-0.2-0.4-0.3
		c-0.1-0.1-0.3-0.2-0.4-0.4s-0.2-0.3-0.3-0.5s-0.1-0.4-0.1-0.6c0-0.3,0.1-0.6,0.2-0.8c0.1-0.2,0.3-0.4,0.6-0.6
		c0.2-0.1,0.5-0.3,0.8-0.3c0.3-0.1,0.6-0.1,0.9-0.1c0.5,0,1,0.1,1.4,0.2c0.4,0.1,0.8,0.3,1.1,0.6l-0.7,1.1c-0.1-0.1-0.2-0.2-0.4-0.3
		c-0.1-0.1-0.2-0.2-0.4-0.3s-0.3-0.1-0.4-0.2c-0.2,0-0.3-0.1-0.5-0.1c-0.2,0-0.3,0-0.4,0.1s-0.2,0.1-0.3,0.2s-0.1,0.1-0.2,0.2
		c0,0.1-0.1,0.2-0.1,0.3c0,0.1,0,0.2,0.1,0.3c0.1,0.1,0.1,0.1,0.2,0.2c0.1,0.1,0.2,0.1,0.3,0.2c0.1,0,0.2,0.1,0.3,0.1
		c0.2,0.1,0.3,0.1,0.5,0.2c0.2,0.1,0.3,0.1,0.5,0.2c0.1,0,0.2,0.1,0.3,0.1c0.1,0,0.2,0.1,0.4,0.2c0.1,0.1,0.3,0.2,0.4,0.3
		s0.2,0.2,0.3,0.4c0.1,0.1,0.2,0.3,0.2,0.5c0.1,0.2,0.1,0.4,0.1,0.6c0,0.3-0.1,0.6-0.2,0.8s-0.3,0.4-0.6,0.6
		c-0.2,0.2-0.5,0.3-0.8,0.4c-0.3,0.1-0.6,0.1-1,0.1c-0.3,0-0.6,0-0.8,0c-0.3,0-0.5-0.1-0.7-0.2c-0.2-0.1-0.5-0.2-0.7-0.3
		c-0.2-0.1-0.4-0.3-0.6-0.5L146.7,155z"/>
	<path class="st2" d="M158.7,150.3c-0.1,0.2-0.1,0.4-0.1,0.6c0,0.2,0,0.3,0,0.3v8.5h-1.6v-3.2c-0.2,0.2-0.5,0.3-0.7,0.4
		s-0.5,0.1-0.9,0.1c-0.4,0-0.8-0.1-1.2-0.3c-0.4-0.2-0.6-0.4-0.9-0.7c-0.2-0.3-0.4-0.7-0.6-1.1c-0.1-0.4-0.2-0.9-0.2-1.3
		c0-0.5,0.1-1,0.2-1.4c0.2-0.4,0.4-0.8,0.6-1.1c0.3-0.3,0.6-0.5,1-0.7c0.4-0.2,0.8-0.3,1.2-0.3c0.3,0,0.6,0,0.8,0.1
		c0.2,0.1,0.4,0.2,0.6,0.4l0.1-0.4H158.7z M155.6,155.8c0.2,0,0.3,0,0.4,0c0.1,0,0.2,0,0.3-0.1c0.1,0,0.2-0.1,0.3-0.1
		c0.1,0,0.2-0.1,0.3-0.2v-3.8c-0.1,0-0.2-0.1-0.3-0.1c-0.1,0-0.2,0-0.3-0.1c-0.1,0-0.2,0-0.4,0c-0.1,0-0.2,0-0.3,0
		c-0.2,0-0.5,0.1-0.6,0.2c-0.2,0.1-0.3,0.3-0.5,0.5s-0.2,0.4-0.3,0.7c-0.1,0.3-0.1,0.5-0.1,0.8c0,0.3,0,0.5,0.1,0.8
		c0.1,0.3,0.1,0.5,0.3,0.7s0.3,0.4,0.4,0.5C155.1,155.7,155.3,155.8,155.6,155.8z"/>
	<path class="st2" d="M162.1,150.3v4.5c0,0.2,0,0.3,0.1,0.5c0.1,0.1,0.1,0.2,0.2,0.3c0.1,0.1,0.2,0.1,0.3,0.2c0.1,0,0.2,0.1,0.4,0.1
		c0.3,0,0.6,0,0.9-0.1s0.6-0.2,0.9-0.4v-5.1h1.6v5.5c0,0.1,0,0.3,0,0.5s0.1,0.4,0.1,0.7h-1.5c0,0,0-0.1,0-0.1c0-0.1,0-0.1-0.1-0.2
		c0-0.1,0-0.2-0.1-0.2c0-0.1,0-0.1,0-0.2c-0.1,0.1-0.3,0.2-0.5,0.3c-0.2,0.1-0.4,0.2-0.5,0.3c-0.2,0.1-0.4,0.1-0.6,0.2
		c-0.2,0-0.4,0.1-0.6,0.1c-0.4,0-0.8-0.1-1.1-0.2c-0.3-0.1-0.5-0.3-0.7-0.5c-0.2-0.2-0.3-0.5-0.4-0.7c-0.1-0.3-0.1-0.6-0.1-0.9v-4.4
		H162.1z"/>
	<path class="st2" d="M168.5,148.2c0-0.1,0-0.2,0.1-0.3c0-0.1,0.1-0.2,0.2-0.3c0.1-0.1,0.2-0.1,0.3-0.2c0.1,0,0.2-0.1,0.3-0.1
		c0.1,0,0.2,0,0.4,0.1s0.2,0.1,0.3,0.2c0.1,0.1,0.1,0.2,0.2,0.3c0,0.1,0.1,0.2,0.1,0.3s0,0.2-0.1,0.3c0,0.1-0.1,0.2-0.2,0.3
		c-0.1,0.1-0.2,0.1-0.3,0.2s-0.2,0.1-0.4,0.1c-0.1,0-0.2,0-0.3-0.1c-0.1-0.1-0.2-0.1-0.3-0.2c-0.1-0.1-0.1-0.2-0.2-0.3
		C168.5,148.5,168.5,148.4,168.5,148.2z M168.6,150.3h1.6v6.6h-1.6V150.3z"/>
	<path class="st2" d="M172.6,155c0.6,0.7,1.2,1,1.9,1c0.2,0,0.3,0,0.4,0c0.1,0,0.2-0.1,0.3-0.1c0.1-0.1,0.2-0.1,0.2-0.3
		c0.1-0.1,0.1-0.2,0.1-0.4c0-0.1,0-0.2-0.1-0.3c0-0.1-0.1-0.2-0.2-0.2c-0.1-0.1-0.2-0.1-0.2-0.2c-0.1,0-0.2-0.1-0.3-0.1
		c-0.2-0.1-0.3-0.1-0.5-0.2c-0.2-0.1-0.3-0.1-0.5-0.2c-0.1,0-0.2-0.1-0.3-0.1s-0.3-0.1-0.4-0.2c-0.1-0.1-0.3-0.2-0.4-0.3
		c-0.1-0.1-0.3-0.2-0.4-0.4s-0.2-0.3-0.3-0.5s-0.1-0.4-0.1-0.6c0-0.3,0.1-0.6,0.2-0.8c0.1-0.2,0.3-0.4,0.6-0.6
		c0.2-0.1,0.5-0.3,0.8-0.3c0.3-0.1,0.6-0.1,0.9-0.1c0.5,0,1,0.1,1.4,0.2c0.4,0.1,0.8,0.3,1.1,0.6l-0.7,1.1c-0.1-0.1-0.2-0.2-0.4-0.3
		c-0.1-0.1-0.2-0.2-0.4-0.3s-0.3-0.1-0.4-0.2c-0.2,0-0.3-0.1-0.5-0.1c-0.2,0-0.3,0-0.4,0.1s-0.2,0.1-0.3,0.2s-0.1,0.1-0.2,0.2
		c0,0.1-0.1,0.2-0.1,0.3c0,0.1,0,0.2,0.1,0.3c0.1,0.1,0.1,0.1,0.2,0.2c0.1,0.1,0.2,0.1,0.3,0.2c0.1,0,0.2,0.1,0.3,0.1
		c0.2,0.1,0.3,0.1,0.5,0.2c0.2,0.1,0.3,0.1,0.5,0.2c0.1,0,0.2,0.1,0.3,0.1c0.1,0,0.2,0.1,0.4,0.2c0.1,0.1,0.3,0.2,0.4,0.3
		s0.2,0.2,0.3,0.4c0.1,0.1,0.2,0.3,0.2,0.5c0.1,0.2,0.1,0.4,0.1,0.6c0,0.3-0.1,0.6-0.2,0.8s-0.3,0.4-0.6,0.6
		c-0.2,0.2-0.5,0.3-0.8,0.4c-0.3,0.1-0.6,0.1-1,0.1c-0.3,0-0.6,0-0.8,0c-0.3,0-0.5-0.1-0.7-0.2c-0.2-0.1-0.5-0.2-0.7-0.3
		c-0.2-0.1-0.4-0.3-0.6-0.5L172.6,155z"/>
	<path class="st2" d="M178.4,151.2c0.3-0.3,0.8-0.6,1.2-0.7c0.5-0.2,1-0.3,1.5-0.3c0.4,0,0.7,0,1,0.1c0.3,0.1,0.6,0.2,0.9,0.4
		s0.5,0.4,0.6,0.6c0.2,0.3,0.2,0.6,0.2,0.9v2.9c0,0.1,0,0.3,0,0.4c0,0.1,0,0.2,0.1,0.2c0,0.1,0.1,0.1,0.1,0.1c0.1,0,0.1,0,0.2,0
		c0,0,0.1,0,0.2,0c0.1,0,0.2,0,0.3,0l0.2,0.7c-0.1,0.1-0.2,0.1-0.3,0.2s-0.2,0.1-0.3,0.1s-0.2,0.1-0.4,0.1s-0.3,0-0.4,0
		c-0.3,0-0.6-0.1-0.8-0.2c-0.2-0.1-0.3-0.3-0.4-0.6c-0.2,0.2-0.3,0.3-0.5,0.4c-0.2,0.1-0.4,0.2-0.6,0.2c-0.2,0.1-0.4,0.1-0.6,0.1
		c-0.2,0-0.4,0-0.5,0c-0.3,0-0.6,0-0.8-0.1c-0.2-0.1-0.4-0.2-0.6-0.3c-0.2-0.2-0.3-0.3-0.4-0.6c-0.1-0.2-0.1-0.5-0.1-0.8
		c0-0.3,0.1-0.6,0.2-0.9s0.2-0.5,0.4-0.7s0.4-0.3,0.7-0.5c0.3-0.1,0.5-0.2,0.8-0.3s0.6-0.1,1-0.1c0.3,0,0.7,0,1,0v-0.2
		c0-0.2,0-0.4-0.1-0.6c-0.1-0.2-0.1-0.3-0.3-0.4s-0.2-0.2-0.4-0.2c-0.2,0-0.3-0.1-0.5-0.1c-0.2,0-0.3,0-0.4,0s-0.3,0.1-0.4,0.1
		c-0.1,0.1-0.3,0.2-0.4,0.3s-0.3,0.3-0.5,0.4L178.4,151.2z M182.3,153.5c-0.5,0-0.9,0.1-1.2,0.2c-0.3,0.1-0.5,0.2-0.7,0.3
		c-0.2,0.1-0.3,0.3-0.4,0.5s-0.1,0.4-0.1,0.6c0,0.2,0,0.3,0.1,0.4c0,0.1,0.1,0.2,0.2,0.3c0.1,0.1,0.2,0.1,0.3,0.2s0.2,0,0.3,0
		c0.1,0,0.2,0,0.4,0c0.1,0,0.2,0,0.4-0.1c0.1,0,0.3-0.1,0.4-0.1c0.1-0.1,0.3-0.1,0.4-0.2V153.5z"/>
</g>
<g class="st4">
	<path class="st2" d="M346,164.8h-6.6v-17.9h6.6c5.3,0,9.5,3.6,9.5,9C355.5,161.2,351.3,164.8,346,164.8z M345.6,151.6h-0.5v8.3h0.5
		c2.2,0,3.9-1.5,3.9-4.2C349.5,153.2,347.8,151.6,345.6,151.6z"/>
	<path class="st2" d="M359.2,164.8v-17.9h10.9v4.8H365v1.7h4.1v4.9H365v1.7h5.8v4.8H359.2z"/>
	<path class="st2" d="M390,164.8l-0.4-5.1c-0.1-0.8-0.1-1.6-0.1-2.6h-0.1c-0.3,1-0.6,1.7-1,2.6l-2.6,5.1h-2.5l-2.6-5.1
		c-0.4-0.8-0.8-1.7-1-2.6h-0.1c0.1,1,0.1,1.7,0,2.6l-0.4,5.1h-5.7l1.5-17.9h5.5l3,5.9c0.4,0.8,1,2,1.3,3h0c0.3-1,0.9-2.2,1.3-3
		l3-5.9h5.1l1.6,17.9H390z"/>
	<path class="st2" d="M407.7,165.2c-4.4,0-8.2-2.5-8.2-7v-11.4h6v11c0,1.6,1.3,2.2,2.3,2.2c1,0,2.3-0.6,2.3-2.2v-11.1h5.9v11.4
		C415.9,162.7,412,165.2,407.7,165.2z"/>
	<path class="st2" d="M420,164.8v-17.9h6V160h5.6v4.8H420z"/>
	<path class="st2" d="M442.4,151.7v13.1h-6v-13.1h-4.5v-4.8h15v4.8H442.4z"/>
	<path class="st2" d="M455.9,165.1c-2.1,0-4.3-0.6-5.5-1.3l-0.5-5.3c1.6,1,3.6,1.8,5.3,1.8c1.1,0,1.8-0.3,1.8-0.9
		c0-0.5-0.4-0.7-1.5-1c-3.9-0.8-5.5-3.2-5.5-6.1c0-3.5,2.6-5.9,6.6-5.9c2.4,0,4.3,0.6,5.2,1l-1,4.7c-0.8-0.4-2.4-0.8-3.4-0.8
		c-1.2,0-1.6,0.3-1.6,0.8c0,0.5,0.5,0.6,1.5,0.8c3.8,0.8,5.8,3,5.8,6.1C462.9,162.9,460.5,165.1,455.9,165.1z"/>
</g>
</svg>
