<svg xmlns="http://www.w3.org/2000/svg" xmlns:xlink="http://www.w3.org/1999/xlink" width="108.195" height="40.246" viewBox="0 0 108.195 40.246">
  <defs>
    <linearGradient id="linear-gradient" y1="0.5" x2="1" y2="0.5" gradientUnits="objectBoundingBox">
      <stop offset="0.106" stop-color="#29235c"/>
      <stop offset="0.288" stop-color="#272d68"/>
      <stop offset="0.624" stop-color="#224a8a"/>
      <stop offset="1" stop-color="#1d70b7"/>
    </linearGradient>
  </defs>
  <g id="Grupo_126" data-name="Grupo 126" transform="translate(-555 -320)">
    <g id="Grupo_125" data-name="Grupo 125" transform="translate(519.592 173.434)">
      <g id="Grupo_124" data-name="Grupo 124">
        <g id="Grupo_68" data-name="Grupo 68">
          <g id="Grupo_15" data-name="Grupo 15">
            <g id="Grupo_13" data-name="Grupo 13">
              <path id="Caminho_119" data-name="Caminho 119" d="M73.4,180.173H46.483L45,177.449l.766.209,1.018,1.871H73.4Z" fill="#be7b54"/>
            </g>
            <g id="Grupo_14" data-name="Grupo 14">
              <path id="Caminho_120" data-name="Caminho 120" d="M73.182,180.48c-.25,0-.439-.271-.439-.629s.189-.629.439-.629.438.27.438.629S73.432,180.48,73.182,180.48Zm0-.758a.509.509,0,0,0-.016.129.5.5,0,0,0,.016.128.5.5,0,0,0,.015-.128A.513.513,0,0,0,73.182,179.722Z" fill="#be7b54"/>
            </g>
          </g>
          <g id="Grupo_18" data-name="Grupo 18">
            <g id="Grupo_16" data-name="Grupo 16">
              <path id="Caminho_121" data-name="Caminho 121" d="M42.525,180.622h-4.6v-.645h4.3l1.4-2.572H73.4v.645H43.925Z" fill="#be7b54"/>
            </g>
            <g id="Grupo_17" data-name="Grupo 17">
              <path id="Caminho_122" data-name="Caminho 122" d="M73.182,178.356c-.25,0-.439-.271-.439-.629s.189-.629.439-.629.438.27.438.629S73.432,178.356,73.182,178.356Zm0-.758a.524.524,0,0,0,0,.257.558.558,0,0,0,0-.257Z" fill="#be7b54"/>
            </g>
          </g>
          <g id="Grupo_21" data-name="Grupo 21">
            <g id="Grupo_19" data-name="Grupo 19">
              <rect id="Retângulo_7" data-name="Retângulo 7" width="6.677" height="0.645" transform="translate(66.727 175.28)" fill="#be7b54"/>
            </g>
            <g id="Grupo_20" data-name="Grupo 20">
              <path id="Caminho_123" data-name="Caminho 123" d="M73.182,176.232c-.25,0-.439-.271-.439-.629s.189-.629.439-.629.438.27.438.629S73.432,176.232,73.182,176.232Zm0-.758a.524.524,0,0,0,0,.257.558.558,0,0,0,0-.257Z" fill="#be7b54"/>
            </g>
          </g>
          <g id="Grupo_24" data-name="Grupo 24">
            <g id="Grupo_22" data-name="Grupo 22">
              <path id="Caminho_124" data-name="Caminho 124" d="M64.771,175.588H45.032l-.791-1.454.326-.6.766,1.408H64.47l.973-1.787H73.4v.645h-7.66Z" fill="#be7b54"/>
            </g>
            <g id="Grupo_23" data-name="Grupo 23">
              <path id="Caminho_125" data-name="Caminho 125" d="M73.182,174.108c-.25,0-.439-.271-.439-.629s.189-.629.439-.629.438.27.438.629S73.432,174.108,73.182,174.108Zm0-.758a.524.524,0,0,0,0,.257.558.558,0,0,0,0-.257Z" fill="#be7b54"/>
            </g>
          </g>
          <g id="Grupo_27" data-name="Grupo 27">
            <g id="Grupo_25" data-name="Grupo 25">
              <path id="Caminho_126" data-name="Caminho 126" d="M42.707,174.087H38.632v-.645h3.773l.866-1.591h5.9l.819,1.5H63.342l1.265-2.324h8.8v.645h-8.5L63.643,174H49.694l-.819-1.5h-5.3Z" fill="#be7b54"/>
            </g>
            <g id="Grupo_26" data-name="Grupo 26">
              <path id="Caminho_127" data-name="Caminho 127" d="M73.182,171.983c-.25,0-.439-.27-.439-.628s.189-.629.439-.629.438.27.438.629S73.432,171.983,73.182,171.983Zm0-.757a.524.524,0,0,0,0,.257.558.558,0,0,0,0-.257Z" fill="#be7b54"/>
            </g>
          </g>
          <g id="Grupo_30" data-name="Grupo 30">
            <g id="Grupo_28" data-name="Grupo 28">
              <path id="Caminho_128" data-name="Caminho 128" d="M36.236,172.3l-.326-.6,1.467-2.695H43.6l1.258-2.311h3.213l1.795,3.3h9.4l.59-1.083H73.4v.645H60.157l-.59,1.083H49.562l-1.795-3.3H45.157L43.9,169.65h-6.22Z" fill="#be7b54"/>
            </g>
            <g id="Grupo_29" data-name="Grupo 29">
              <path id="Caminho_129" data-name="Caminho 129" d="M73.182,169.859c-.25,0-.439-.27-.439-.628s.189-.629.439-.629.438.27.438.629S73.432,169.859,73.182,169.859Zm0-.757a.524.524,0,0,0,0,.257.558.558,0,0,0,0-.257Z" fill="#be7b54"/>
            </g>
          </g>
          <g id="Grupo_33" data-name="Grupo 33">
            <g id="Grupo_31" data-name="Grupo 31">
              <path id="Caminho_130" data-name="Caminho 130" d="M73.4,167.429H51.293l-2.408-4.423.62-.06,2.089,3.838H73.4Z" fill="#be7b54"/>
            </g>
            <g id="Grupo_32" data-name="Grupo 32">
              <path id="Caminho_131" data-name="Caminho 131" d="M73.182,167.735c-.25,0-.439-.27-.439-.629s.189-.628.439-.628.438.27.438.628S73.432,167.735,73.182,167.735Zm0-.757a.524.524,0,0,0,0,.257.558.558,0,0,0,0-.257Z" fill="#be7b54"/>
            </g>
          </g>
          <g id="Grupo_36" data-name="Grupo 36">
            <g id="Grupo_34" data-name="Grupo 34">
              <path id="Caminho_132" data-name="Caminho 132" d="M44.665,165.94h-8.35V165.3h8.048l1.357-2.493H65.862l1.011,1.857H73.4v.645H66.572l-1.011-1.857H46.022Z" fill="#be7b54"/>
            </g>
            <g id="Grupo_35" data-name="Grupo 35">
              <path id="Caminho_133" data-name="Caminho 133" d="M73.182,165.611c-.25,0-.439-.271-.439-.629s.189-.629.439-.629.438.27.438.629S73.432,165.611,73.182,165.611Zm0-.758a.528.528,0,0,0,0,.258.562.562,0,0,0,0-.258Z" fill="#be7b54"/>
            </g>
          </g>
          <g id="Grupo_37" data-name="Grupo 37">
            <path id="Caminho_134" data-name="Caminho 134" d="M73.4,163.18H66.572l-1.049-1.926H45.435l-.752,1.381H38.779v-.645h5.6l.752-1.381h20.69l1.049,1.926H73.4Z" fill="#be7b54"/>
          </g>
          <g id="Grupo_39" data-name="Grupo 39">
            <g id="Grupo_38" data-name="Grupo 38">
              <path id="Caminho_135" data-name="Caminho 135" d="M38.757,161.9a.428.428,0,1,0,.419.427A.423.423,0,0,0,38.757,161.9Z" fill="#be7b54"/>
              <path id="Caminho_136" data-name="Caminho 136" d="M38.757,162.963a.639.639,0,1,1,.631-.639A.636.636,0,0,1,38.757,162.963Zm0-.854a.216.216,0,1,0,.208.215A.212.212,0,0,0,38.757,162.109Z" fill="#be7b54"/>
            </g>
          </g>
          <g id="Grupo_41" data-name="Grupo 41">
            <g id="Grupo_40" data-name="Grupo 40">
              <path id="Caminho_137" data-name="Caminho 137" d="M53.565,164.773a.428.428,0,1,0,.42.427A.423.423,0,0,0,53.565,164.773Z" fill="#be7b54"/>
              <path id="Caminho_138" data-name="Caminho 138" d="M53.565,165.839a.639.639,0,1,1,.632-.639A.636.636,0,0,1,53.565,165.839Zm0-.855a.216.216,0,1,0,.209.216A.212.212,0,0,0,53.565,164.984Z" fill="#be7b54"/>
            </g>
          </g>
          <g id="Grupo_43" data-name="Grupo 43">
            <g id="Grupo_42" data-name="Grupo 42">
              <path id="Caminho_139" data-name="Caminho 139" d="M50.916,167.872a.427.427,0,1,0,.42.427A.423.423,0,0,0,50.916,167.872Z" fill="#be7b54"/>
              <path id="Caminho_140" data-name="Caminho 140" d="M50.916,168.937a.639.639,0,1,1,.631-.638A.636.636,0,0,1,50.916,168.937Zm0-.854a.216.216,0,1,0,.208.216A.213.213,0,0,0,50.916,168.083Z" fill="#be7b54"/>
            </g>
          </g>
          <g id="Grupo_45" data-name="Grupo 45">
            <g id="Grupo_44" data-name="Grupo 44">
              <path id="Caminho_141" data-name="Caminho 141" d="M36.429,165.2a.428.428,0,1,0,.42.428A.424.424,0,0,0,36.429,165.2Z" fill="#be7b54"/>
              <path id="Caminho_142" data-name="Caminho 142" d="M36.429,166.266a.639.639,0,1,1,.631-.638A.635.635,0,0,1,36.429,166.266Zm0-.854a.216.216,0,1,0,.209.216A.212.212,0,0,0,36.429,165.412Z" fill="#be7b54"/>
            </g>
          </g>
          <g id="Grupo_47" data-name="Grupo 47">
            <g id="Grupo_46" data-name="Grupo 46">
              <path id="Caminho_143" data-name="Caminho 143" d="M38.855,167.629a.427.427,0,1,0,.42.427A.423.423,0,0,0,38.855,167.629Z" fill="#be7b54"/>
              <path id="Caminho_144" data-name="Caminho 144" d="M38.855,168.7a.639.639,0,1,1,.631-.639A.636.636,0,0,1,38.855,168.7Zm0-.855a.216.216,0,1,0,.208.216A.213.213,0,0,0,38.855,167.84Z" fill="#be7b54"/>
            </g>
          </g>
          <g id="Grupo_49" data-name="Grupo 49">
            <g id="Grupo_48" data-name="Grupo 48">
              <path id="Caminho_145" data-name="Caminho 145" d="M40.075,170.191a.427.427,0,1,0,.42.427A.423.423,0,0,0,40.075,170.191Z" fill="#be7b54"/>
              <path id="Caminho_146" data-name="Caminho 146" d="M40.075,171.257a.639.639,0,1,1,.631-.639A.636.636,0,0,1,40.075,171.257Zm0-.855a.216.216,0,1,0,.209.216A.212.212,0,0,0,40.075,170.4Z" fill="#be7b54"/>
            </g>
          </g>
          <g id="Grupo_51" data-name="Grupo 51">
            <g id="Grupo_50" data-name="Grupo 50">
              <path id="Caminho_147" data-name="Caminho 147" d="M38.628,173.327a.428.428,0,1,0,.42.428A.424.424,0,0,0,38.628,173.327Z" fill="#be7b54"/>
              <path id="Caminho_148" data-name="Caminho 148" d="M38.628,174.393a.639.639,0,1,1,.631-.638A.636.636,0,0,1,38.628,174.393Zm0-.854a.216.216,0,1,0,.208.216A.213.213,0,0,0,38.628,173.539Z" fill="#be7b54"/>
            </g>
          </g>
          <g id="Grupo_53" data-name="Grupo 53">
            <g id="Grupo_52" data-name="Grupo 52">
              <path id="Caminho_149" data-name="Caminho 149" d="M44.442,173.449a.427.427,0,1,0,.419.427A.423.423,0,0,0,44.442,173.449Z" fill="#be7b54"/>
              <path id="Caminho_150" data-name="Caminho 150" d="M44.442,174.515a.639.639,0,1,1,.631-.639A.636.636,0,0,1,44.442,174.515Zm0-.855a.216.216,0,1,0,.208.216A.213.213,0,0,0,44.442,173.66Z" fill="#be7b54"/>
            </g>
          </g>
          <g id="Grupo_55" data-name="Grupo 55">
            <g id="Grupo_54" data-name="Grupo 54">
              <path id="Caminho_151" data-name="Caminho 151" d="M66.722,175.176a.427.427,0,1,0,.42.427A.423.423,0,0,0,66.722,175.176Z" fill="#be7b54"/>
              <path id="Caminho_152" data-name="Caminho 152" d="M66.723,176.241a.639.639,0,1,1,.631-.638A.635.635,0,0,1,66.723,176.241Zm0-.854a.216.216,0,1,0,.208.216A.213.213,0,0,0,66.723,175.387Z" fill="#be7b54"/>
            </g>
          </g>
          <g id="Grupo_57" data-name="Grupo 57">
            <g id="Grupo_56" data-name="Grupo 56">
              <path id="Caminho_153" data-name="Caminho 153" d="M38.14,179.795a.428.428,0,1,0,.42.428A.424.424,0,0,0,38.14,179.795Z" fill="#be7b54"/>
              <path id="Caminho_154" data-name="Caminho 154" d="M38.14,180.861a.639.639,0,1,1,.631-.638A.636.636,0,0,1,38.14,180.861Zm0-.854a.216.216,0,1,0,.208.216A.213.213,0,0,0,38.14,180.007Z" fill="#be7b54"/>
            </g>
          </g>
          <g id="Grupo_59" data-name="Grupo 59">
            <g id="Grupo_58" data-name="Grupo 58">
              <path id="Caminho_155" data-name="Caminho 155" d="M36.039,171.526a.427.427,0,1,0,.42.427A.423.423,0,0,0,36.039,171.526Z" fill="#be7b54"/>
              <path id="Caminho_156" data-name="Caminho 156" d="M36.039,172.592a.639.639,0,1,1,.631-.639A.636.636,0,0,1,36.039,172.592Zm0-.855a.216.216,0,1,0,.209.216A.213.213,0,0,0,36.039,171.737Z" fill="#be7b54"/>
            </g>
          </g>
          <g id="Grupo_61" data-name="Grupo 61">
            <g id="Grupo_60" data-name="Grupo 60">
              <path id="Caminho_157" data-name="Caminho 157" d="M65.36,167.607,64.211,165.5H53.354v-.645H64.512l1.174,2.157Z" fill="#be7b54"/>
            </g>
          </g>
          <g id="Grupo_63" data-name="Grupo 63">
            <g id="Grupo_62" data-name="Grupo 62">
              <path id="Caminho_158" data-name="Caminho 158" d="M50.83,168.741,49.064,165.5H47.855l-.877,1.61-.683.057,1.259-2.312h1.812l1.791,3.29Z" fill="#be7b54"/>
            </g>
          </g>
          <g id="Grupo_65" data-name="Grupo 65">
            <g id="Grupo_64" data-name="Grupo 64">
              <rect id="Retângulo_8" data-name="Retângulo 8" width="5.903" height="0.645" transform="translate(38.75 167.734)" fill="#be7b54"/>
            </g>
          </g>
          <g id="Grupo_67" data-name="Grupo 67">
            <g id="Grupo_66" data-name="Grupo 66">
              <path id="Caminho_159" data-name="Caminho 159" d="M58.639,173.874l-.714-.114-1.133-2.081H48.3l-.975-1.791H45.2l-.583,1.07H39.864v-.645h4.453l.583-1.071h2.728l.975,1.791h8.49Z" fill="#be7b54"/>
            </g>
          </g>
        </g>
        <g id="Grupo_123" data-name="Grupo 123">
          <g id="Grupo_70" data-name="Grupo 70">
            <g id="Grupo_69" data-name="Grupo 69">
              <path id="Caminho_160" data-name="Caminho 160" d="M132.443,179.971H104.655v-.645h27.489l1.052-1.872.777-.2Z" fill="#be7b54"/>
            </g>
          </g>
          <g id="Grupo_73" data-name="Grupo 73">
            <g id="Grupo_71" data-name="Grupo 71">
              <path id="Caminho_161" data-name="Caminho 161" d="M141.053,180.42h-4.6l-1.4-2.572H105.577V177.2h29.78l1.4,2.572h4.3Z" fill="#be7b54"/>
            </g>
            <g id="Grupo_72" data-name="Grupo 72">
              <ellipse id="Elipse_1" data-name="Elipse 1" cx="0.227" cy="0.417" rx="0.227" ry="0.417" transform="translate(105.572 177.108)" fill="none" stroke="#be7b54" stroke-linecap="round" stroke-miterlimit="10" stroke-width="2"/>
            </g>
          </g>
          <g id="Grupo_76" data-name="Grupo 76">
            <g id="Grupo_74" data-name="Grupo 74">
              <rect id="Retângulo_9" data-name="Retângulo 9" width="6.677" height="0.645" transform="translate(105.577 175.079)" fill="#be7b54"/>
            </g>
            <g id="Grupo_75" data-name="Grupo 75">
              <path id="Caminho_162" data-name="Caminho 162" d="M105.8,174.984c-.125,0-.227.186-.227.417s.1.417.227.417.228-.187.228-.417S105.925,174.984,105.8,174.984Z" fill="none" stroke="#be7b54" stroke-linecap="round" stroke-miterlimit="10" stroke-width="2"/>
            </g>
          </g>
          <g id="Grupo_79" data-name="Grupo 79">
            <g id="Grupo_77" data-name="Grupo 77">
              <path id="Caminho_163" data-name="Caminho 163" d="M133.949,175.386H114.21l-.973-1.787h-7.66v-.645h7.962l.973,1.787h19.137l.766-1.408.326.6Z" fill="#be7b54"/>
            </g>
            <g id="Grupo_78" data-name="Grupo 78">
              <ellipse id="Elipse_2" data-name="Elipse 2" cx="0.227" cy="0.417" rx="0.227" ry="0.417" transform="translate(105.572 172.859)" fill="none" stroke="#be7b54" stroke-linecap="round" stroke-miterlimit="10" stroke-width="2"/>
            </g>
          </g>
          <g id="Grupo_82" data-name="Grupo 82">
            <g id="Grupo_80" data-name="Grupo 80">
              <path id="Caminho_164" data-name="Caminho 164" d="M140.349,173.886h-4.075l-.866-1.591h-5.3l-.819,1.5H115.338l-1.265-2.324h-8.5v-.645h8.8l1.265,2.324h13.346l.819-1.5h5.9l.866,1.591h3.774Z" fill="#be7b54"/>
            </g>
            <g id="Grupo_81" data-name="Grupo 81">
              <path id="Caminho_165" data-name="Caminho 165" d="M105.8,170.735c-.125,0-.227.187-.227.418s.1.417.227.417.228-.187.228-.417S105.925,170.735,105.8,170.735Z" fill="none" stroke="#be7b54" stroke-linecap="round" stroke-miterlimit="10" stroke-width="2"/>
            </g>
          </g>
          <g id="Grupo_85" data-name="Grupo 85">
            <g id="Grupo_83" data-name="Grupo 83">
              <path id="Caminho_166" data-name="Caminho 166" d="M142.745,172.1l-1.442-2.649h-6.22l-1.258-2.311h-2.611l-1.795,3.3h-10l-.59-1.083H105.577v-.645h13.548l.59,1.083h9.4l1.795-3.3h3.213l1.258,2.311h6.22l1.467,2.695Z" fill="#be7b54"/>
            </g>
            <g id="Grupo_84" data-name="Grupo 84">
              <ellipse id="Elipse_3" data-name="Elipse 3" cx="0.227" cy="0.417" rx="0.227" ry="0.417" transform="translate(105.572 168.611)" fill="none" stroke="#be7b54" stroke-linecap="round" stroke-miterlimit="10" stroke-width="2"/>
            </g>
          </g>
          <g id="Grupo_88" data-name="Grupo 88">
            <g id="Grupo_86" data-name="Grupo 86">
              <path id="Caminho_167" data-name="Caminho 167" d="M127.688,167.227H105.577v-.645h21.81l2.089-3.838.62.06Z" fill="#be7b54"/>
            </g>
            <g id="Grupo_87" data-name="Grupo 87">
              <ellipse id="Elipse_4" data-name="Elipse 4" cx="0.227" cy="0.417" rx="0.227" ry="0.417" transform="translate(105.572 166.487)" fill="none" stroke="#be7b54" stroke-linecap="round" stroke-miterlimit="10" stroke-width="2"/>
            </g>
          </g>
          <g id="Grupo_91" data-name="Grupo 91">
            <g id="Grupo_89" data-name="Grupo 89">
              <path id="Caminho_168" data-name="Caminho 168" d="M142.666,165.738h-8.349l-1.357-2.493H113.42l-1.011,1.857h-6.832v-.645h6.531l1.011-1.857H133.26l1.357,2.493h8.049Z" fill="#be7b54"/>
            </g>
            <g id="Grupo_90" data-name="Grupo 90">
              <ellipse id="Elipse_5" data-name="Elipse 5" cx="0.227" cy="0.417" rx="0.227" ry="0.417" transform="translate(105.572 164.363)" fill="none" stroke="#be7b54" stroke-linecap="round" stroke-miterlimit="10" stroke-width="2"/>
            </g>
          </g>
          <g id="Grupo_92" data-name="Grupo 92">
            <path id="Caminho_169" data-name="Caminho 169" d="M112.409,162.978h-6.832v-.645h6.531l1.049-1.926h20.69l.752,1.381h5.6v.645h-5.9l-.752-1.381H113.458Z" fill="#be7b54"/>
          </g>
          <g id="Grupo_94" data-name="Grupo 94">
            <g id="Grupo_93" data-name="Grupo 93">
              <path id="Caminho_170" data-name="Caminho 170" d="M140.225,161.7a.428.428,0,1,1-.42.427A.424.424,0,0,1,140.225,161.7Z" fill="#be7b54"/>
              <path id="Caminho_171" data-name="Caminho 171" d="M140.225,162.761a.639.639,0,1,1,.631-.639A.636.636,0,0,1,140.225,162.761Zm0-.854a.216.216,0,1,0,.208.215A.213.213,0,0,0,140.225,161.907Z" fill="#be7b54"/>
            </g>
          </g>
          <g id="Grupo_96" data-name="Grupo 96">
            <g id="Grupo_95" data-name="Grupo 95">
              <path id="Caminho_172" data-name="Caminho 172" d="M125.416,164.571A.428.428,0,1,1,125,165,.424.424,0,0,1,125.416,164.571Z" fill="#be7b54"/>
              <path id="Caminho_173" data-name="Caminho 173" d="M125.416,165.637a.639.639,0,1,1,.631-.639A.636.636,0,0,1,125.416,165.637Zm0-.854a.216.216,0,1,0,.208.215A.212.212,0,0,0,125.416,164.783Z" fill="#be7b54"/>
            </g>
          </g>
          <g id="Grupo_98" data-name="Grupo 98">
            <g id="Grupo_97" data-name="Grupo 97">
              <path id="Caminho_174" data-name="Caminho 174" d="M128.065,167.67a.427.427,0,1,1-.419.427A.423.423,0,0,1,128.065,167.67Z" fill="#be7b54"/>
              <path id="Caminho_175" data-name="Caminho 175" d="M128.066,168.736a.639.639,0,1,1,.631-.639A.636.636,0,0,1,128.066,168.736Zm0-.855a.216.216,0,1,0,.208.216A.213.213,0,0,0,128.066,167.881Z" fill="#be7b54"/>
            </g>
          </g>
          <g id="Grupo_100" data-name="Grupo 100">
            <g id="Grupo_99" data-name="Grupo 99">
              <path id="Caminho_176" data-name="Caminho 176" d="M142.552,165a.428.428,0,1,1-.42.428A.424.424,0,0,1,142.552,165Z" fill="#be7b54"/>
              <path id="Caminho_177" data-name="Caminho 177" d="M142.552,166.064a.639.639,0,1,1,.631-.638A.635.635,0,0,1,142.552,166.064Zm0-.854a.216.216,0,1,0,.209.216A.213.213,0,0,0,142.552,165.21Z" fill="#be7b54"/>
            </g>
          </g>
          <g id="Grupo_102" data-name="Grupo 102">
            <g id="Grupo_101" data-name="Grupo 101">
              <path id="Caminho_178" data-name="Caminho 178" d="M140.126,167.427a.428.428,0,1,1-.42.427A.423.423,0,0,1,140.126,167.427Z" fill="#be7b54"/>
              <path id="Caminho_179" data-name="Caminho 179" d="M140.126,168.493a.639.639,0,1,1,.631-.639A.636.636,0,0,1,140.126,168.493Zm0-.854a.216.216,0,1,0,.209.215A.211.211,0,0,0,140.126,167.639Z" fill="#be7b54"/>
            </g>
          </g>
          <g id="Grupo_104" data-name="Grupo 104">
            <g id="Grupo_103" data-name="Grupo 103">
              <path id="Caminho_180" data-name="Caminho 180" d="M138.906,169.989a.428.428,0,1,1-.42.427A.423.423,0,0,1,138.906,169.989Z" fill="#be7b54"/>
              <path id="Caminho_181" data-name="Caminho 181" d="M138.906,171.055a.639.639,0,1,1,.631-.639A.636.636,0,0,1,138.906,171.055Zm0-.854a.216.216,0,1,0,.209.215A.212.212,0,0,0,138.906,170.2Z" fill="#be7b54"/>
            </g>
          </g>
          <g id="Grupo_106" data-name="Grupo 106">
            <g id="Grupo_105" data-name="Grupo 105">
              <path id="Caminho_182" data-name="Caminho 182" d="M140.353,173.126a.427.427,0,1,1-.42.427A.423.423,0,0,1,140.353,173.126Z" fill="#be7b54"/>
              <path id="Caminho_183" data-name="Caminho 183" d="M140.353,174.191a.639.639,0,1,1,.632-.638A.635.635,0,0,1,140.353,174.191Zm0-.854a.216.216,0,1,0,.209.216A.212.212,0,0,0,140.353,173.337Z" fill="#be7b54"/>
            </g>
          </g>
          <g id="Grupo_108" data-name="Grupo 108">
            <g id="Grupo_107" data-name="Grupo 107">
              <path id="Caminho_184" data-name="Caminho 184" d="M134.54,173.247a.427.427,0,1,1-.42.427A.423.423,0,0,1,134.54,173.247Z" fill="#be7b54"/>
              <path id="Caminho_185" data-name="Caminho 185" d="M134.54,174.313a.639.639,0,1,1,.631-.639A.636.636,0,0,1,134.54,174.313Zm0-.855a.216.216,0,1,0,.208.216A.213.213,0,0,0,134.54,173.458Z" fill="#be7b54"/>
            </g>
          </g>
          <g id="Grupo_110" data-name="Grupo 110">
            <g id="Grupo_109" data-name="Grupo 109">
              <path id="Caminho_186" data-name="Caminho 186" d="M112.259,174.974a.427.427,0,1,1-.42.427A.424.424,0,0,1,112.259,174.974Z" fill="#be7b54"/>
              <path id="Caminho_187" data-name="Caminho 187" d="M112.259,176.039a.639.639,0,1,1,.631-.638A.636.636,0,0,1,112.259,176.039Zm0-.854a.216.216,0,1,0,.208.216A.213.213,0,0,0,112.259,175.185Z" fill="#be7b54"/>
            </g>
          </g>
          <g id="Grupo_112" data-name="Grupo 112">
            <g id="Grupo_111" data-name="Grupo 111">
              <path id="Caminho_188" data-name="Caminho 188" d="M140.841,179.593a.428.428,0,1,1-.42.428A.424.424,0,0,1,140.841,179.593Z" fill="#be7b54"/>
              <path id="Caminho_189" data-name="Caminho 189" d="M140.841,180.659a.639.639,0,1,1,.632-.638A.635.635,0,0,1,140.841,180.659Zm0-.854a.216.216,0,1,0,.209.216A.212.212,0,0,0,140.841,179.8Z" fill="#be7b54"/>
            </g>
          </g>
          <g id="Grupo_114" data-name="Grupo 114">
            <g id="Grupo_113" data-name="Grupo 113">
              <path id="Caminho_190" data-name="Caminho 190" d="M142.972,171.228a.428.428,0,1,1-.42.427A.424.424,0,0,1,142.972,171.228Z" fill="#be7b54"/>
              <path id="Caminho_191" data-name="Caminho 191" d="M142.972,172.294a.639.639,0,1,1,.631-.639A.635.635,0,0,1,142.972,172.294Zm0-.854a.216.216,0,1,0,.209.215A.211.211,0,0,0,142.972,171.44Z" fill="#be7b54"/>
            </g>
          </g>
          <g id="Grupo_116" data-name="Grupo 116">
            <g id="Grupo_115" data-name="Grupo 115">
              <path id="Caminho_192" data-name="Caminho 192" d="M113.049,167.259l1.42-2.609h11.158v.645H114.77l-.856,1.572Z" fill="#be7b54"/>
            </g>
          </g>
          <g id="Grupo_118" data-name="Grupo 118">
            <g id="Grupo_117" data-name="Grupo 117">
              <path id="Caminho_193" data-name="Caminho 193" d="M128.151,168.539l-.326-.6,1.791-3.29h1.811l1.259,2.312L132,166.9l-.877-1.61h-1.209Z" fill="#be7b54"/>
            </g>
          </g>
          <g id="Grupo_120" data-name="Grupo 120">
            <g id="Grupo_119" data-name="Grupo 119">
              <rect id="Retângulo_10" data-name="Retângulo 10" width="5.903" height="0.645" transform="translate(134.328 167.532)" fill="#be7b54"/>
            </g>
          </g>
          <g id="Grupo_122" data-name="Grupo 122">
            <g id="Grupo_121" data-name="Grupo 121">
              <path id="Caminho_194" data-name="Caminho 194" d="M120.342,173.672l1.546-2.841h8.49l.975-1.791h2.728l.583,1.071h4.453v.645h-4.754l-.583-1.07h-2.126l-.975,1.791h-8.49l-1.133,2.081Z" fill="#be7b54"/>
            </g>
          </g>
        </g>
        <path id="Caminho_195" data-name="Caminho 195" d="M79.652,150.159a3.7,3.7,0,0,0-3.8-3.593,3.763,3.763,0,0,0-3.705,2.785h0a5.041,5.041,0,0,0,2.361,5.735,7.366,7.366,0,0,0,1.831.678v-2.041A3.67,3.67,0,0,0,79.652,150.159Z" fill="#f0850b"/>
        <path id="Caminho_196" data-name="Caminho 196" d="M93.858,149.069c-2.485-.258-8.4-.133-11.264-.051a1.641,1.641,0,0,0-1.587,1.684l.143,7.641H73.634a1.668,1.668,0,0,0-1.658,1.676v25.063a1.72,1.72,0,0,0,1.709,1.73s17.323-.066,19.694-.1a2.721,2.721,0,0,0,.494-.058c5.274-1.159,15.03-5.327,15.01-18.788C108.862,154.592,98.948,149.6,93.858,149.069ZM85.916,163.32s.528-.013,1.311-.023h.115l.245,0c.817-.013,1.832-.021,2.814,0a4.95,4.95,0,0,1,4.812,4.73,5.15,5.15,0,0,1-2.628,4.342,2.336,2.336,0,0,1-1.237.352H85.916Zm17.77,9.4c-2.286,8.215-12.44,9.21-19.686,9.213H76.438v-18.65H81.36L81.2,175.6a1.571,1.571,0,0,0,1.518,1.6c3.044.087,9.782.125,12.494-1.069,3.556-1.567,4.847-5.154,4.6-8.748-.505-7.356-6.713-8.8-10.654-8.973-.087-.005-.171-.008-.255-.01-1.743-.054-2.988-.046-2.988-.046v-4.516s11.269-1.26,15.476,4.551A16.459,16.459,0,0,1,103.686,172.716Z" fill="url(#linear-gradient)"/>
        <path id="Caminho_197" data-name="Caminho 197" d="M89.161,158.362l-1.573,4.894-.245,0h-.115c-.783.011-1.312.023-1.312.023v-4.975s1.246-.008,2.989.046C88.99,158.354,89.074,158.357,89.161,158.362Z" fill="#c6c6c5"/>
      </g>
    </g>
  </g>
</svg>
